<svg aria-hidden="true" style="position: absolute; width: 0; height: 0; overflow: hidden;" version="1.1" xmlns="http://www.w3.org/2000/svg" xmlns:xlink="http://www.w3.org/1999/xlink">
<defs>
<symbol id="icon-logo" viewBox="0 0 143 32">
<path d="M7.14 18.31l-1.385 2.606v8.756h-4.48v-28.509h4.48v12.422l5.865-12.422h4.48l-6.231 12.707 6.231 15.802h-4.602l-4.358-11.363zM22.424 23.116c0 1.032 0.21 1.758 0.631 2.179s0.984 0.631 1.69 0.631 1.269-0.21 1.69-0.631c0.421-0.421 0.631-1.147 0.631-2.179v-15.395c0-1.032-0.21-1.758-0.631-2.179s-0.984-0.631-1.69-0.631c-0.706 0-1.269 0.21-1.69 0.631s-0.631 1.147-0.631 2.179v15.395zM17.944 8.006c0-2.308 0.584-4.080 1.751-5.315s2.851-1.853 5.050-1.853c2.199 0 3.883 0.618 5.050 1.853s1.751 3.007 1.751 5.315v14.825c0 2.308-0.584 4.080-1.751 5.315s-2.851 1.853-5.050 1.853-3.883-0.618-5.050-1.853c-1.168-1.235-1.751-3.007-1.751-5.315v-14.825zM38.889 9.024v20.649h-4.032v-28.509h5.62l4.602 17.065v-17.065h3.991v28.509h-4.602l-5.58-20.649zM52.179 8.006c0-2.308 0.55-4.080 1.649-5.315s2.749-1.853 4.948-1.853c2.199 0 3.849 0.618 4.948 1.853s1.649 3.007 1.649 5.315v0.896h-4.236v-1.181c0-1.032-0.197-1.758-0.591-2.179s-0.943-0.631-1.649-0.631c-0.706 0-1.256 0.21-1.65 0.631s-0.59 1.147-0.59 2.179c0 0.977 0.217 1.839 0.652 2.586s0.978 1.453 1.629 2.118c0.652 0.665 1.351 1.33 2.098 1.996s1.446 1.392 2.097 2.179c0.652 0.787 1.195 1.683 1.629 2.688s0.652 2.186 0.652 3.543c0 2.308-0.563 4.080-1.69 5.315s-2.79 1.853-4.989 1.853c-2.199 0-3.862-0.618-4.989-1.853s-1.69-3.007-1.69-5.315v-1.751h4.236v2.036c0 1.032 0.21 1.751 0.631 2.158s0.984 0.611 1.69 0.611c0.706 0 1.269-0.204 1.69-0.611s0.631-1.127 0.631-2.158c0-0.978-0.217-1.84-0.652-2.586s-0.977-1.453-1.629-2.118c-0.652-0.665-1.351-1.331-2.097-1.996s-1.446-1.392-2.098-2.179c-0.652-0.787-1.195-1.683-1.629-2.688s-0.652-2.186-0.652-3.543zM67.137 1.164h13.847v4.073h-4.684v24.436h-4.48v-24.436h-4.684v-4.073zM92.766 29.673c-0.054-0.19-0.109-0.367-0.163-0.53s-0.102-0.366-0.142-0.611c-0.041-0.244-0.068-0.557-0.082-0.937s-0.020-0.855-0.020-1.426v-4.48c0-1.33-0.231-2.267-0.692-2.81s-1.208-0.815-2.24-0.815h-1.548v11.607h-4.48v-28.509h6.761c2.335 0 4.025 0.543 5.070 1.629s1.568 2.729 1.568 4.928v2.24c0 2.932-0.977 4.86-2.932 5.783 1.14 0.462 1.921 1.215 2.342 2.26s0.631 2.315 0.631 3.808v4.399c0 0.706 0.027 1.324 0.082 1.853s0.19 1.066 0.407 1.609h-4.562zM87.879 5.236v8.756h1.751c0.842 0 1.5-0.217 1.975-0.652s0.713-1.222 0.713-2.362v-2.81c0-1.032-0.183-1.778-0.55-2.24s-0.944-0.692-1.731-0.692h-2.159zM104.507 1.164v21.993c0 1.032 0.21 1.751 0.631 2.159s0.984 0.611 1.69 0.611c0.706 0 1.269-0.204 1.69-0.611s0.631-1.127 0.631-2.159v-21.993h4.236v21.708c0 2.308-0.563 4.080-1.69 5.315s-2.79 1.853-4.989 1.853c-2.199 0-3.862-0.618-4.989-1.853s-1.69-3.007-1.69-5.315v-21.708h4.48zM129.141 1.164h13.847v4.073h-4.684v24.436h-4.48v-24.436h-4.684v-4.073z"></path>
<path style="fill: var(--color2, #00a4e5)" d="M115.514 15.979l11.636-14.545v29.091l-11.636-14.546z"></path>
</symbol>
<symbol id="icon-project" viewBox="0 0 32 32">
<path d="M0 32h16v-32h-16v32zM10 4h4v4h-4v-4zM10 12h4v4h-4v-4zM10 20h4v4h-4v-4zM2 4h4v4h-4v-4zM2 12h4v4h-4v-4zM2 20h4v4h-4v-4zM18 10h14v2h-14zM18 32h4v-8h6v8h4v-18h-14z"></path>
</symbol>
<symbol id="icon-factory" viewBox="0 0 34 32">
<path d="M32 30v-2h-2v-12h2v-2h-6v2h2v12h-6v-12h2v-2h-6v2h2v12h-6v-12h2v-2h-6v2h2v12h-6v-12h2v-2h-6v2h2v12h-2v2h-2v2h34v-2h-2z"></path>
<path d="M16 0h2l16 10v2h-34v-2l16-10z"></path>
</symbol>
<symbol id="icon-audit" viewBox="0 0 32 32">
<path d="M32 10l-16-8-16 8 16 8 16-8zM16 4.655l10.689 5.345-10.689 5.345-10.689-5.345 10.689-5.345zM28.795 14.398l3.205 1.602-16 8-16-8 3.205-1.602 12.795 6.398zM28.795 20.398l3.205 1.602-16 8-16-8 3.205-1.602 12.795 6.398z"></path>
</symbol>
<symbol id="icon-twitter" viewBox="0 0 40 32">
<path d="M39.998 3.799c-1.558 0.652-3.155 1.074-4.713 1.266 1.792-1.036 2.96-2.532 3.622-4.451-1.636 0.921-3.388 1.573-5.219 1.918-1.636-1.688-3.622-2.532-5.998-2.532-2.259 0-4.206 0.806-5.803 2.379s-2.415 3.492-2.415 5.717c0 0.614 0.078 1.228 0.195 1.842-3.35-0.153-6.504-0.998-9.425-2.494s-5.414-3.492-7.478-5.947c-0.74 1.266-1.129 2.609-1.129 4.067 0 1.381 0.312 2.686 0.974 3.837 0.662 1.189 1.558 2.149 2.648 2.878-1.324-0.038-2.571-0.384-3.7-1.036v0.115c0 1.957 0.623 3.645 1.87 5.142 1.246 1.458 2.804 2.417 4.713 2.801-0.701 0.192-1.441 0.269-2.142 0.269-0.467 0-0.974-0.038-1.558-0.115 0.506 1.612 1.48 2.954 2.882 3.99s2.999 1.573 4.791 1.612c-2.96 2.302-6.388 3.453-10.166 3.453-0.74 0-1.402-0.038-1.986-0.115 3.817 2.417 8.023 3.607 12.58 3.607 2.921 0 5.648-0.46 8.218-1.343 2.571-0.921 4.752-2.11 6.543-3.645s3.388-3.3 4.674-5.257c1.324-1.995 2.298-4.067 2.921-6.216s0.974-4.336 0.974-6.484c0-0.46 0-0.806-0.039-1.036 1.675-1.189 3.038-2.571 4.167-4.221z"></path>
</symbol>
<symbol id="icon-facebook" viewBox="0 0 15 32">
<path d="M9.668 10.488v-2.771c0-0.417 0.029-0.745 0.058-0.953 0.029-0.238 0.116-0.447 0.261-0.655s0.348-0.358 0.639-0.447c0.29-0.089 0.697-0.119 1.19-0.119h2.7v-5.542h-4.326c-2.497 0-4.268 0.596-5.342 1.817s-1.626 2.98-1.626 5.363v3.307h-3.223v5.512h3.223v16h6.445v-16h4.297l0.581-5.512h-4.878z"></path>
</symbol>
<symbol id="icon-linkedin" viewBox="0 0 33 32">
<path d="M7.587 10.399h-7.186v21.601h7.186v-21.601z"></path>
<path d="M31.182 12.372c-1.504-1.638-3.509-2.474-5.982-2.474-0.902 0-1.738 0.1-2.507 0.334-0.735 0.234-1.37 0.535-1.905 0.936-0.501 0.401-0.936 0.769-1.236 1.137-0.301 0.334-0.568 0.702-0.836 1.137v-3.076h-7.152l0.033 1.037c0 0.702 0.033 2.842 0.033 6.453s0 8.293-0.033 14.111h7.152v-12.038c0-0.736 0.067-1.337 0.234-1.772 0.301-0.736 0.769-1.371 1.37-1.873s1.37-0.736 2.306-0.736c1.237 0 2.172 0.435 2.741 1.304 0.602 0.869 0.869 2.073 0.869 3.578v11.536h7.152v-12.372c0.033-3.177-0.702-5.584-2.239-7.223z"></path>
<path d="M4.044 0c-1.203 0-2.172 0.368-2.908 1.070-0.769 0.702-1.136 1.572-1.136 2.642s0.368 1.939 1.103 2.675c0.735 0.702 1.671 1.070 2.874 1.070h0.033c1.237 0 2.206-0.368 2.941-1.070s1.103-1.605 1.103-2.675c0-1.070-0.401-1.973-1.103-2.675-0.735-0.669-1.704-1.037-2.908-1.037z"></path>
</symbol>
<symbol id="icon-menu-opener" viewBox="0 0 32 32"><path d="M6.4 11.733v-2.133h19.2v2.133h-19.2zM6.4 17.067h19.2v-2.133h-19.2v2.133zM6.4 22.4h19.2v-2.133h-19.2v2.133z"></path>
</symbol>
<symbol id="icon-menu-closer" viewBox="0 0 32 32"><path d="M23.733 10.304l-1.504-1.504-5.963 5.963-5.963-5.963-1.504 1.504 5.963 5.963-5.963 5.963 1.504 1.504 5.963-5.963 5.963 5.963 1.504-1.504-5.963-5.963 5.963-5.963z"></path>
</symbol>
<symbol id="icon-modal-close" viewBox="0 0 32 32">
<path d="M26.667 7.303l-1.97-1.97-7.808 7.808-7.808-7.808-1.97 1.97 7.808 7.808-7.808 7.808 1.97 1.97 7.808-7.808 7.808 7.808 1.97-1.97-7.808-7.808 7.808-7.808z"></path>
</symbol>
<symbol id="icon-user" viewBox="0 0 32 32"><path d="M16 16c2.947 0 5.333-2.387 5.333-5.333s-2.387-5.333-5.333-5.333c-2.947 0-5.333 2.387-5.333 5.333s2.387 5.333 5.333 5.333zM16 18.667c-3.56 0-10.667 1.787-10.667 5.333v1.333c0 0.733 0.6 1.333 1.333 1.333h18.667c0.733 0 1.333-0.6 1.333-1.333v-1.333c0-3.547-7.107-5.333-10.667-5.333z"></path>
</symbol>
<symbol id="icon-password" viewBox="0 0 32 32">
<path d="M22 0c-5.523 0-10 4.477-10 10 0 0.626 0.058 1.238 0.168 1.832l-12.168 12.168v6c0 1.105 0.895 2 2 2h2v-2h4v-4h4v-4h4l2.595-2.595c1.063 0.385 2.209 0.595 3.405 0.595 5.523 0 10-4.477 10-10s-4.477-10-10-10zM24.996 10.004c-1.657 0-3-1.343-3-3s1.343-3 3-3 3 1.343 3 3-1.343 3-3 3z"></path>
</symbol>
<symbol id="icon-tel" viewBox="0 0 32 32">
<path d="M24.882 19.773l-3.268-0.373c-0.785-0.090-1.557 0.18-2.11 0.733l-2.367 2.367c-3.641-1.853-6.626-4.825-8.478-8.478l2.38-2.38c0.553-0.553 0.823-1.325 0.733-2.11l-0.373-3.242c-0.154-1.299-1.248-2.277-2.56-2.277h-2.226c-1.454 0-2.663 1.209-2.573 2.663 0.682 10.987 9.469 19.761 20.443 20.443 1.454 0.090 2.663-1.119 2.663-2.573v-2.226c0.013-1.299-0.965-2.393-2.264-2.547z"></path>
</symbol>
<symbol id="icon-email" viewBox="0 0 32 32">
<path d="M26.667 5.333h-21.333c-1.467 0-2.653 1.2-2.653 2.667l-0.013 16c0 1.467 1.2 2.667 2.667 2.667h21.333c1.467 0 2.667-1.2 2.667-2.667v-16c0-1.467-1.2-2.667-2.667-2.667zM26.133 11l-9.427 5.893c-0.427 0.267-0.987 0.267-1.413 0l-9.427-5.893c-0.333-0.213-0.533-0.573-0.533-0.96 0-0.893 0.973-1.427 1.733-0.96l8.933 5.587 8.933-5.587c0.76-0.467 1.733 0.067 1.733 0.96 0 0.387-0.2 0.747-0.533 0.96z"></path>
</symbol>
<symbol id="icon-arrow" viewBox="0 0 32 32">
<path d="M16 1l-15 15h9v16h12v-16h9z"></path>
</symbol>
</defs>
</svg>
